# xmcd
#
# Track frame offsets:
#	150
#	22044
#	51724
#	65521
#	80677
#	108194
#	120053
#	136144
#	150938
#	171840
#	189661
#	217241
#	230471
#	244589
#	259083
#
# Disc length: 3711
#
# Revision: 1
# Processed by: cddbd v1.5.1PL0 Copyright (c) Steve Scherf et al.
# Submitted via: WhereIsIt 3.23
# Normalized: r0:DSETVAR1
#
DISCID=cc0e7d0f
DTITLE=Various Artist - Blues Story - Vol. 07 - Les Guitar Heroes Du Blues
DYEAR=1900
DGENRE=
TTITLE0=Johnny Winter - Mojo Boogie
TTITLE1=Albert King - I'll Play The Blues For You (Live)
TTITLE2=Freddie King - Lowdown In Lodi
TTITLE3=Popa Chubby - It All Turns To Gold
TTITLE4=Kenny Wayne Sheperd - Deja Voodoo
TTITLE5=Roy Buchanan - Petal To The Metal
TTITLE6=Mike Bloomfield - Mama Lion
TTITLE7=Buddy Guy - Cry And Sing The Blues
TTITLE8=Albert Collins - Frosty (Live)
TTITLE9=Hound Dog Taylor - Taylor's Rock
TTITLE10=Rory Gallagher - Messin' With The Kid (Live)
TTITLE11=Elvin Bishop - Devil's Slide
TTITLE12=Tom Principato - One For Danny
TTITLE13=John Mayall and Eric Clapton - Hideaway
TTITLE14=Peter Green - The Stumble
EXTD=
EXTT0=
EXTT1=
EXTT2=
EXTT3=
EXTT4=
EXTT5=
EXTT6=
EXTT7=
EXTT8=
EXTT9=
EXTT10=
EXTT11=
EXTT12=
EXTT13=
EXTT14=
PLAYORDER=
